HIERARCHY
ROOT Hips
{
	OFFSET 0.000000 0.000000 0.000000 
	CHANNELS 6 Xposition Yposition Zposition Yrotation Zrotation Xrotation 
	JOINT Lumbar
	{
		OFFSET 0.000000 0.000000 0.000000 
		CHANNELS 3 Zrotation Xrotation Yrotation
		JOINT Neck
		{
			OFFSET 0.000000 0.445665 0.000000 
			CHANNELS 3 Zrotation Xrotation Yrotation
			End Site
			{
				OFFSET 0.000000 0.227535 0.000000 
			}
		}
		JOINT RightShoulder
		{
			OFFSET 0.019635 0.377685 0.194865 
			CHANNELS 3 Zrotation Xrotation Yrotation
			JOINT RightElbow
			{
				OFFSET 0.000000 -0.243375 0.000000 
				CHANNELS 2 Zrotation Yrotation
				JOINT RightWrist
				{
					OFFSET 0.000000 -0.264825 0.000000 
					CHANNELS 2 Zrotation Xrotation
					End Site
					{
						OFFSET 0.006600 -0.176220 0.000990 
					}
				}
			}
		}
		JOINT LeftShoulder
		{
			OFFSET 0.019635 0.377685 -0.194865 
			CHANNELS 3 Zrotation Xrotation Yrotation
			JOINT LeftElbow
			{
				OFFSET 0.000000 -0.243375 0.000000 
				CHANNELS 2 Zrotation Yrotation
				JOINT LeftWrist
				{
					OFFSET 0.000000 -0.264825 0.000000 
					CHANNELS 2 Zrotation Xrotation
					End Site
					{
						OFFSET 0.006600 -0.176220 -0.000990 
					}
				}
			}
		}
	}
	JOINT RightHip
	{
		OFFSET 0.052140 -0.069960 0.075570 
		CHANNELS 3 Zrotation Xrotation Yrotation
		JOINT RightKnee
		{
			OFFSET 0.000000 -0.402270 0.000000 
			CHANNELS 1 Zrotation
			JOINT RightAnkle
			{
				OFFSET 0.000000 -0.404085 0.000000 
				CHANNELS 3 Zrotation Xrotation Yrotation
				End Site
				{
					OFFSET 0.204105 -0.089430 0.008415 
				}
			}
		}
	}
	JOINT LeftHip
	{
		OFFSET 0.052140 -0.069960 -0.075570 
		CHANNELS 3 Zrotation Xrotation Yrotation
		JOINT LeftKnee
		{
			OFFSET 0.000000 -0.402270 0.000000 
			CHANNELS 1 Zrotation
			JOINT LeftAnkle
			{
				OFFSET 0.000000 -0.404085 0.000000 
				CHANNELS 3 Zrotation Xrotation Yrotation
				End Site
				{
					OFFSET 0.204105 -0.089430 -0.008415 
				}
			}
		}
	}
}
MOTION
Frames: 31
Frame Time: 0.02
0.5979 0.93194 -1.01872 161.91996 0 -4.91355 -0.36861 0.69553 -1.50599 -44.83954 2.64647 4.4526 49.88063 -30.39646 35.96663 87.0151 128.17467 -23.13531 -12.03979 50.73062 18.03155 -45.51051 87.59428 -120.2677 -33.60289 8.72811 7.31782 -0.3921 2.57947 -27.1214 -10.35654 -2.02382 -16.84039 -1.40663 2.21256 9.88369 -11.34579 -1.13628 4.55808 13.48387
0.5959 0.93221 -1.0168 161.95102 0 -5.102 -0.27814 0.79377 -1.68175 -44.60856 2.79797 4.54939 49.1149 -30.30627 35.62989 87.57679 127.12139 -23.78945 -11.86044 50.19084 17.506 -44.38379 88.25061 -119.44433 -34.44319 8.50073 7.97005 0.0965 3.7797 -28.036 -10.14726 -2.05489 -16.90063 -1.41341 2.28378 9.85418 -11.47454 -1.02203 4.5862 13.51111
0.5937 0.9325 -1.01535 161.985 0 -5.30607 -0.16733 0.94016 -1.92436 -44.49344 2.9849 4.72043 48.31299 -30.3293 35.32152 88.24304 123.32012 -22.67683 -11.12787 49.60003 16.86921 -43.1813 88.30759 -117.39944 -34.67253 8.16091 8.55292 0.69512 5.26803 -28.74615 -9.94806 -2.10563 -16.87523 -1.40592 2.39427 9.82523 -11.66587 -0.88862 4.62168 13.54958
0.5916 0.93277 -1.01371 162.02702 0 -5.49846 -0.07061 1.06451 -2.1368 -44.31705 3.15453 4.84365 47.52903 -30.27852 34.99709 88.83862 120.92084 -22.41686 -10.68489 49.04598 16.29241 -42.05824 88.62591 -116.00422 -35.23036 7.88172 9.15911 1.22715 6.58717 -29.51717 -9.74981 -2.14878 -16.87101 -1.40357 2.48405 9.78734 -11.83053 -0.76331 4.65394 13.58274
0.58947 0.9331 -1.01197 162.02347 0 -5.71167 0.04726 1.19307 -2.34432 -44.17518 3.32533 5.01817 46.72564 -30.3066 34.65688 89.51426 117.98424 -22.03089 -10.11257 48.41861 15.69105 -40.72638 88.98618 -114.20879 -35.59711 7.55542 9.80334 1.83206 8.06795 -30.42826 -9.5253 -2.18715 -16.93602 -1.40713 2.58796 9.79022 -11.99034 -0.63911 4.68589 13.61831
0.58736 0.9333 -1.01056 162.11738 0 -5.88427 0.12608 1.32309 -2.57891 -43.99178 3.50322 5.10709 45.96316 -30.20432 34.36529 90.05564 115.45653 -21.46242 -9.66182 47.94015 15.10899 -39.81646 89.12167 -112.95308 -36.20159 7.30286 10.35041 2.31001 9.28122 -30.99566 -9.35938 -2.23921 -16.84215 -1.39563 2.67082 9.70799 -12.17283 -0.50908 4.71998 13.64996
0.58534 0.93315 -1.00989 162.48578 0 -5.94543 0.08676 1.44347 -2.87957 -43.63833 3.69662 4.9352 45.27282 -29.70253 34.22772 90.1881 114.92836 -20.72793 -9.73632 47.85923 14.60179 -40.11916 88.74027 -113.5388 -37.68886 7.28565 10.64748 2.41255 9.67514 -30.68256 -9.34814 -2.33153 -16.28638 -1.33714 2.68787 9.37492 -12.41811 -0.36175 4.76028 13.67993
0.58335 0.93287 -1.00955 162.9522 0 -5.96413 0.0082 1.56354 -3.20447 -43.24359 3.89565 4.6768 44.63531 -29.07061 34.13738 90.18522 114.86004 -19.86939 -9.93988 47.93693 14.11652 -40.84778 88.15904 -114.70121 -39.42054 7.34681 10.84827 2.38264 9.79147 -30.02661 -9.39659 -2.4357 -15.58127 -1.26558 2.68179 8.95821 -12.68088 -0.21048 4.80208 13.70318
0.58134 0.93265 -1.00908 163.3704 0 -5.99924 -0.04897 1.68434 -3.51386 -42.88597 4.08976 4.4633 44.00748 -28.50714 34.01278 90.25667 114.4338 -19.12387 -10.0429 47.96088 13.62279 -41.36412 87.70066 -115.5658 -40.98662 7.37035 11.09208 2.41176 10.04166 -29.51522 -9.4213 -2.52946 -14.97484 -1.20561 2.68477 8.58943 -12.92548 -0.06495 4.8418 13.72179
0.57933 0.93242 -1.00853 163.80313 0 -6.04736 -0.12009 1.80412 -3.84422 -42.45681 4.29518 4.22894 43.2363 -27.90503 33.94369 90.28286 114.52777 -18.10343 -10.29737 47.90468 13.11962 -41.95212 87.09618 -116.53733 -42.75877 7.39819 11.33746 2.45016 10.27015 -29.04481 -9.43264 -2.64453 -14.23896 -1.12102 2.69518 8.17936 -13.21594 0.09808 4.88769 13.77374
0.57735 0.93218 -1.00822 164.23007 0 -6.05774 -0.17214 1.92565 -4.13609 -42.16294 4.4777 4.01619 42.77637 -27.35487 33.76859 90.36295 113.70095 -17.6185 -10.28241 48.05467 12.64208 -42.4985 86.74374 -117.44056 -44.17155 7.4373 11.55658 2.43572 10.47319 -28.40957 -9.48513 -2.71849 -13.7338 -1.08516 2.68421 7.8348 -13.4136 0.22518 4.921 13.75391
0.57546 0.93197 -1.00846 164.60708 0 -5.97713 -0.15867 2.04862 -4.31323 -42.27262 4.59753 3.88715 43.16563 -26.94801 33.30211 90.68154 110.08151 -18.91686 -9.42285 48.7275 12.23603 -42.77877 87.24598 -118.00495 -44.49482 7.48818 11.73524 2.31267 10.68087 -27.41045 -9.64333 -2.66967 -13.94272 -1.18382 2.61893 7.69657 -13.35578 0.25342 4.91893 13.54225
0.57361 0.93176 -1.00894 164.97691 0 -5.85931 -0.12535 2.17363 -4.45099 -42.51546 4.69357 3.78183 43.86508 -26.60369 32.72509 91.04596 105.56484 -20.72255 -8.30344 49.60316 11.8549 -43.01038 87.99052 -118.48714 -44.45383 7.54842 11.88943 2.13973 10.86993 -26.25757 -9.83969 -2.58007 -14.38237 -1.33265 2.53298 7.62612 -13.2028 0.24509 4.90409 13.25757
0.57173 0.93155 -1.00934 165.35639 0 -5.7567 -0.10333 2.29987 -4.60806 -42.68389 4.7991 3.66356 44.42217 -26.25082 32.1899 91.35447 101.55502 -22.11627 -7.35075 50.39257 11.45823 -43.29717 88.55611 -119.02099 -44.61248 7.60493 12.04971 1.98564 11.06123 -25.1704 -10.01403 -2.51332 -14.68973 -1.46068 2.45683 7.5215 -13.08966 0.25244 4.89535 13.00319
0.56991 0.93135 -1.0096 165.7117 0 -5.66015 -0.07304 2.41752 -4.75989 -42.91015 4.91054 3.55197 44.9908 -25.80833 31.69092 91.81489 97.11622 -24.24291 -6.1962 51.1664 11.07795 -43.46448 89.40809 -119.5197 -44.65248 7.66144 12.22827 1.84239 11.26859 -24.086 -10.20983 -2.42912 -15.1057 -1.57976 2.37791 7.42859 -12.99121 0.2636 4.88573 12.76099
0.56798 0.93112 -1.01022 166.11513 0 -5.54224 -0.05478 2.55295 -4.91317 -43.04742 5.00379 3.43263 45.60355 -25.57061 31.09084 91.96092 93.38346 -24.99984 -5.39966 52.01383 10.6718 -43.8569 89.71987 -120.05731 -44.82847 7.71973 12.36364 1.66734 11.44257 -22.96724 -10.36967 -2.371 -15.35465 -1.72963 2.30047 7.32794 -12.83976 0.25847 4.87451 12.47588
0.56581 0.93083 -1.01167 166.64633 0 -5.37858 -0.0743 2.74231 -5.07807 -42.91215 5.05405 3.29126 46.30032 -25.87151 30.2305 91.32091 91.55053 -21.55439 -5.64756 53.05621 10.16516 -44.93831 88.51119 -120.78571 -45.65407 7.77598 12.39093 1.40975 11.52103 -21.76508 -10.41629 -2.39842 -15.06582 -1.9514 2.22979 7.1938 -12.56207 0.21409 4.86516 12.09307
0.56352 0.93052 -1.01348 167.22705 0 -5.19428 -0.10652 2.94869 -5.24612 -42.68177 5.08656 3.14062 47.02123 -26.37992 29.27527 90.34778 90.50445 -16.76742 -6.26503 54.15686 9.63537 -46.23557 86.74299 -121.54202 -46.59428 7.83447 12.37507 1.12405 11.5689 -20.54124 -10.42571 -2.45279 -14.60553 -2.20244 2.16214 7.04876 -12.23526 0.15522 4.85409 11.66946
0.56125 0.9302 -1.0152 167.78899 0 -5.0167 -0.13285 3.14351 -5.41382 -42.49145 5.1262 2.9914 47.70859 -26.80052 28.36635 89.46463 89.27645 -12.79172 -6.71851 55.20327 9.13169 -47.39532 85.21571 -122.24062 -47.35842 7.89428 12.37609 0.85618 11.6379 -19.34505 -10.45518 -2.49239 -14.23763 -2.44093 2.09443 6.90659 -11.93238 0.10498 4.84162 11.26218
0.55913 0.92993 -1.01665 168.33474 0 -4.84837 -0.15882 3.35375 -5.57527 -42.31946 5.16886 2.85519 48.51104 -27.19253 27.43293 88.83565 87.28782 -7.98929 -7.14857 56.37523 8.56488 -48.71956 83.76505 -123.12469 -48.6298 7.94345 12.3879 0.56429 11.67748 -18.06425 -10.47378 -2.5411 -13.81636 -2.67878 2.01933 6.77688 -11.61765 0.04452 4.83766 10.86016
0.55668 0.92956 -1.01874 168.92641 0 -4.65718 -0.18905 3.5369 -5.75138 -42.08453 5.20148 2.68881 49.06431 -27.69668 26.53847 87.60585 87.06681 -4.57506 -7.71565 57.29537 8.12146 -49.75366 82.00389 -123.63273 -48.88116 8.01659 12.36708 0.31749 11.76894 -16.96146 -10.50442 -2.57793 -13.46288 -2.92329 1.962 6.61606 -11.31939 0.00277 4.81605 10.44036
0.55341 0.92891 -1.02242 169.62978 0 -4.40151 -0.226 3.63277 -5.9648 -41.70256 5.21 2.4465 49.01505 -28.42464 25.69723 84.73038 91.66695 -5.39294 -8.5969 57.51613 8.0449 -49.92748 79.65086 -123.06383 -46.24956 8.14118 12.26853 0.19363 12.03158 -16.31392 -10.58816 -2.57406 -13.33474 -3.1868 1.94142 6.38653 -11.06056 0.01284 4.74342 9.96532
0.54981 0.92815 -1.02676 170.37825 0 -4.12512 -0.26738 3.70258 -6.19392 -41.25955 5.20967 2.17325 48.69413 -29.26451 24.91298 81.27667 97.99637 -7.63708 -9.59978 57.47776 8.09004 -49.803 76.9812 -122.11601 -42.59675 8.29104 12.13808 0.11812 12.34327 -15.85407 -10.68327 -2.55776 -13.28032 -3.45415 1.94109 6.1231 -10.8241 0.04291 4.65369 9.47721
0.54633 0.92745 -1.03087 171.10808 0 -3.86239 -0.30793 3.78946 -6.41712 -40.84113 5.2135 1.91051 48.43782 -30.07589 24.15471 78.12907 103.4543 -9.18116 -10.53098 57.55123 8.06502 -49.81972 74.36872 -121.37028 -39.43797 8.44032 12.02161 0.02605 12.61992 -15.33734 -10.76575 -2.54821 -13.19351 -3.7146 1.93887 5.86521 -10.58943 0.06635 4.57359 9.00593
0.54298 0.92671 -1.03471 171.83183 0 -3.58025 -0.3434 3.85389 -6.63359 -40.43142 5.21451 1.66176 48.43678 -30.80026 23.17618 74.77702 109.30944 -10.90349 -11.54385 57.65492 8.09911 -49.82111 72.09577 -120.52324 -36.1552 8.54928 11.90718 -0.09056 12.9515 -14.70292 -10.87783 -2.53491 -13.09617 -3.99853 1.90496 5.6483 -10.30154 0.07938 4.48543 8.48696
0.53928 0.92602 -1.03925 172.57825 0 -3.33484 -0.39097 3.95988 -6.86986 -39.99199 5.22156 1.37752 47.83196 -31.72952 22.6685 71.73032 114.7266 -12.60353 -12.4111 57.62954 8.04279 -49.77959 69.05676 -119.76684 -32.88844 8.74114 11.77975 -0.14336 13.17798 -14.35454 -10.93224 -2.52614 -13.04046 -4.23323 1.94299 5.33852 -10.13167 0.11843 4.41019 8.06507
0.53469 0.92543 -1.04551 173.37533 0 -3.18748 -0.46554 4.17614 -7.13886 -39.47134 5.22978 0.99576 45.68815 -33.19578 23.46861 69.56189 118.59941 -13.96024 -12.84058 57.34143 7.67753 -49.69592 63.90695 -119.61939 -29.90282 9.21659 11.63987 -0.03893 13.12679 -14.78529 -10.81756 -2.53253 -13.08219 -4.33821 2.16431 4.77833 -10.27201 0.22932 4.37343 7.91202
0.52975 0.9249 -1.05245 174.19268 0 -3.07917 -0.55319 4.43676 -7.43038 -38.92612 5.24756 0.58097 42.93544 -34.86197 24.73517 67.74147 121.94776 -15.23946 -13.11783 56.92536 7.22302 -49.57371 58.01592 -119.53277 -26.97191 9.76359 11.48565 0.12942 12.96447 -15.49134 -10.64583 -2.54382 -13.16396 -4.39223 2.45891 4.12727 -10.53222 0.36455 4.35044 7.85767
0.52496 0.92437 -1.05911 175.00222 0 -2.95902 -0.63809 4.68447 -7.72376 -38.40166 5.27294 0.18569 40.41948 -36.43855 25.77691 65.83417 125.47922 -16.51686 -13.46777 56.54904 6.82841 -49.47084 52.51182 -119.23571 -24.02203 10.2374 11.32749 0.27348 12.8361 -16.04793 -10.50521 -2.55299 -13.22794 -4.46443 2.72724 3.51815 -10.7449 0.48589 4.32218 7.76013
0.52019 0.92373 -1.06569 175.81113 0 -2.81448 -0.70909 4.9019 -7.96759 -37.83393 5.24849 -0.23068 38.05846 -38.02055 26.88252 63.6088 129.31981 -17.99956 -13.81048 56.24572 6.35505 -49.36615 46.77509 -119.67117 -21.00566 10.88225 11.21088 0.39958 12.77618 -16.71235 -10.34362 -2.56133 -13.29281 -4.55689 2.96808 2.9012 -10.93023 0.62114 4.28955 7.65561
0.51531 0.92332 -1.07258 176.62098 0 -2.7287 -0.81283 5.19173 -8.31858 -37.35203 5.32905 -0.60928 35.23912 -39.6289 27.95543 62.13208 132.35039 -19.01777 -14.12658 55.75792 6.02463 -49.2397 41.36339 -118.6329 -18.16167 11.1895 11.00658 0.57707 12.55061 -17.21699 -10.21132 -2.57268 -13.36422 -4.59612 3.28145 2.28433 -11.19916 0.73133 4.26903 7.58859
